<svg width="97" height="86" viewBox="0 0 97 86" fill="none" xmlns="http://www.w3.org/2000/svg">
<path d="M11.2891 79.8398C11.5591 79.8398 11.8113 79.8782 12.0449 79.9561C12.2801 80.0322 12.4915 80.1449 12.6787 80.2939C12.8659 80.4413 13.021 80.6223 13.1436 80.8359C13.2662 81.048 13.3495 81.2911 13.3926 81.5645H12.6172C12.5874 81.3988 12.5314 81.2529 12.4502 81.127C12.3691 81.0012 12.2698 80.8944 12.1523 80.8066C12.0347 80.7188 11.9027 80.6522 11.7568 80.6074C11.6127 80.5627 11.4593 80.54 11.2969 80.54C11.0036 80.54 10.7408 80.6142 10.5088 80.7617C10.2785 80.9092 10.0961 81.1253 9.96191 81.4102C9.82938 81.6951 9.76274 82.0433 9.7627 82.4541C9.7627 82.8684 9.82934 83.2189 9.96191 83.5039C10.0961 83.7888 10.2798 84.0036 10.5117 84.1494C10.7436 84.2951 11.0041 84.3681 11.2939 84.3682C11.4547 84.3682 11.6078 84.3468 11.752 84.3037C11.8977 84.259 12.0299 84.1936 12.1475 84.1074C12.2649 84.0213 12.3642 83.9161 12.4453 83.792C12.5282 83.666 12.5857 83.5218 12.6172 83.3594L13.3926 83.3623C13.3511 83.6123 13.2706 83.8424 13.1514 84.0527C13.0337 84.2615 12.8819 84.4423 12.6963 84.5947C12.5124 84.7454 12.3022 84.8625 12.0654 84.9453C11.8285 85.0282 11.5691 85.0693 11.2891 85.0693C10.8485 85.0693 10.4559 84.9655 10.1113 84.7568C9.76675 84.5464 9.49474 84.2454 9.2959 83.8545C9.09869 83.4634 9 82.996 9 82.4541C9.00005 81.9107 9.09904 81.444 9.29785 81.0547C9.49665 80.6637 9.76876 80.3641 10.1133 80.1553C10.4579 79.9449 10.85 79.8399 11.2891 79.8398Z" fill="#8A70BF"/>
<path fill-rule="evenodd" clip-rule="evenodd" d="M20.3613 79.8398C20.8004 79.8398 21.1925 79.9449 21.5371 80.1553C21.8834 80.364 22.1566 80.6637 22.3555 81.0547C22.5543 81.444 22.6533 81.9107 22.6533 82.4541C22.6533 82.9976 22.5543 83.4654 22.3555 83.8564C22.1566 84.2459 21.8835 84.5464 21.5371 84.7568C21.1925 84.9654 20.8003 85.0693 20.3613 85.0693C19.9207 85.0693 19.5269 84.9656 19.1807 84.7568C18.836 84.5464 18.5641 84.2455 18.3652 83.8545C18.1664 83.4634 18.0674 82.996 18.0674 82.4541C18.0674 81.9107 18.1664 81.444 18.3652 81.0547C18.564 80.6638 18.8361 80.3641 19.1807 80.1553C19.5269 79.9449 19.9207 79.8399 20.3613 79.8398ZM20.3613 80.54C20.0682 80.5401 19.8064 80.6143 19.5762 80.7617C19.3459 80.9076 19.1635 81.1232 19.0293 81.4082C18.8968 81.6915 18.8301 82.0401 18.8301 82.4541C18.8301 82.8684 18.8967 83.2189 19.0293 83.5039C19.1635 83.787 19.346 84.002 19.5762 84.1494C19.8064 84.2952 20.0682 84.3681 20.3613 84.3682C20.653 84.3682 20.9142 84.2952 21.1445 84.1494C21.3764 84.002 21.5588 83.7871 21.6914 83.5039C21.8256 83.2189 21.8926 82.8684 21.8926 82.4541C21.8925 82.04 21.8256 81.6915 21.6914 81.4082C21.5588 81.1232 21.3765 80.9076 21.1445 80.7617C20.9142 80.6143 20.6529 80.54 20.3613 80.54Z" fill="#8A70BF"/>
<path d="M53.5361 79.8398C53.8062 79.8398 54.0584 79.8782 54.292 79.9561C54.5272 80.0322 54.7386 80.1449 54.9258 80.2939C55.1129 80.4413 55.268 80.6223 55.3906 80.8359C55.5132 81.048 55.5966 81.2911 55.6396 81.5645H54.8643C54.8344 81.3988 54.7785 81.2529 54.6973 81.127C54.6162 81.0012 54.5169 80.8944 54.3994 80.8066C54.2818 80.7188 54.1497 80.6522 54.0039 80.6074C53.8597 80.5627 53.7064 80.54 53.5439 80.54C53.2506 80.54 52.9879 80.6142 52.7559 80.7617C52.5256 80.9092 52.3432 81.1253 52.209 81.4102C52.0765 81.6951 52.0098 82.0433 52.0098 82.4541C52.0098 82.8684 52.0764 83.2189 52.209 83.5039C52.3432 83.7888 52.5269 84.0036 52.7588 84.1494C52.9907 84.2951 53.2512 84.3681 53.541 84.3682C53.7018 84.3682 53.8548 84.3468 53.999 84.3037C54.1448 84.259 54.2769 84.1936 54.3945 84.1074C54.512 84.0213 54.6113 83.9161 54.6924 83.792C54.7752 83.666 54.8328 83.5218 54.8643 83.3594L55.6396 83.3623C55.5982 83.6123 55.5176 83.8424 55.3984 84.0527C55.2808 84.2615 55.129 84.4423 54.9434 84.5947C54.7595 84.7454 54.5493 84.8625 54.3125 84.9453C54.0755 85.0282 53.8162 85.0693 53.5361 85.0693C53.0956 85.0693 52.7029 84.9655 52.3584 84.7568C52.0138 84.5464 51.7418 84.2454 51.543 83.8545C51.3458 83.4634 51.2471 82.996 51.2471 82.4541C51.2471 81.9107 51.3461 81.444 51.5449 81.0547C51.7437 80.6637 52.0158 80.3641 52.3604 80.1553C52.705 79.9449 53.0971 79.8399 53.5361 79.8398Z" fill="#8A70BF"/>
<path d="M28.2998 84.3389H30.6064V85H27.5312V79.9092H28.2998V84.3389Z" fill="#8A70BF"/>
<path d="M36.1709 84.3389H38.4775V85H35.4023V79.9092H36.1709V84.3389Z" fill="#8A70BF"/>
<path d="M46.4648 80.5703H44.042V82.1211H46.2988V82.7803H44.042V84.3389H46.4951V85H43.2734V79.9092H46.4648V80.5703Z" fill="#8A70BF"/>
<path d="M64.168 80.5703H62.5791V85H61.8135V80.5703H60.2275V79.9092H64.168V80.5703Z" fill="#8A70BF"/>
<path d="M69.7266 85H68.958V79.9092H69.7266V85Z" fill="#8A70BF"/>
<path d="M76.627 84.0557H76.6846L78.1016 79.9092H78.9316L77.0996 85H76.2119L74.3799 79.9092H75.21L76.627 84.0557Z" fill="#8A70BF"/>
<path d="M86.7783 80.5703H84.3555V82.1211H86.6123V82.7803H84.3555V84.3389H86.8086V85H83.5869V79.9092H86.7783V80.5703Z" fill="#8A70BF"/>
<path d="M17.2334 64.1533C17.705 64.1533 18.1445 64.2231 18.5508 64.3623C18.9597 64.5015 19.3235 64.6985 19.6416 64.9541C19.9626 65.2097 20.2283 65.514 20.4385 65.8662C20.6487 66.2156 20.7904 66.6041 20.8643 67.0303H19.5137C19.4313 66.7718 19.3208 66.5395 19.1816 66.335C19.0453 66.1276 18.8817 65.9515 18.6914 65.8066C18.5011 65.6589 18.2834 65.5464 18.0391 65.4697C17.7977 65.3931 17.5318 65.3555 17.2422 65.3555C16.7509 65.3555 16.3079 65.4817 15.9131 65.7344C15.5182 65.9872 15.2057 66.3581 14.9756 66.8467C14.7483 67.3324 14.6348 67.9274 14.6348 68.6318C14.6348 69.3391 14.7495 69.9372 14.9795 70.4258C15.2096 70.9144 15.5252 71.2852 15.9258 71.5381C16.3263 71.7909 16.7826 71.918 17.2939 71.918C17.7681 71.9179 18.1811 71.8209 18.5332 71.6279C18.8883 71.4347 19.1633 71.1618 19.3564 70.8096C19.5436 70.4705 19.64 70.0742 19.6484 69.6211H17.4941V68.5342H20.9238V69.5273C20.9238 70.2602 20.7675 70.8968 20.4551 71.4365C20.1455 71.9732 19.717 72.3881 19.1689 72.6807C18.6236 72.9732 17.9983 73.1191 17.2939 73.1191C16.5042 73.1191 15.8104 72.9378 15.2139 72.5742C14.6202 72.2107 14.1576 71.6947 13.8252 71.0273C13.4928 70.3569 13.3262 69.5611 13.3262 68.6406C13.3262 67.9446 13.423 67.3196 13.6162 66.7656C13.8093 66.2118 14.0804 65.7418 14.4297 65.3555C14.7819 64.9663 15.1955 64.6694 15.6699 64.4648C16.1471 64.2575 16.6682 64.1534 17.2334 64.1533Z" fill="#0F0F0F"/>
<path d="M1.31641 71.8662H5.27148V73H0V64.2725H1.31641V71.8662Z" fill="#0F0F0F"/>
<path d="M9.88965 73H8.57324V64.2725H9.88965V73Z" fill="#0F0F0F"/>
<path d="M25.7119 68.0654H30.0635V64.2725H31.3838V73H30.0635V69.1943H25.7119V73H24.3955V64.2725H25.7119V68.0654Z" fill="#0F0F0F"/>
<path d="M41.4258 65.4062H38.7031V73H37.3906V65.4062H34.6719V64.2725H41.4258V65.4062Z" fill="#0F0F0F"/>
<path d="M55.1064 65.4062H51.0107V68.0654H54.7188V69.1943H51.0107V73H49.6943V64.2725H55.1064V65.4062Z" fill="#0F0F0F"/>
<path fill-rule="evenodd" clip-rule="evenodd" d="M61.6357 64.2725C62.3118 64.2725 62.8733 64.3891 63.3193 64.6221C63.7682 64.855 64.1036 65.1779 64.3252 65.5898C64.5467 65.9989 64.6572 66.472 64.6572 67.0088C64.6572 67.5427 64.5456 68.0128 64.3213 68.4189C64.0998 68.8222 63.7641 69.1359 63.3154 69.3604C63.2337 69.4015 63.1471 69.4371 63.0576 69.4707L64.9902 73H63.4902L61.7158 69.6953C61.688 69.6957 61.66 69.6973 61.6318 69.6973H59.8418V73H58.5254V64.2725H61.6357ZM59.8418 68.5635H61.5127C61.9388 68.5635 62.2857 68.503 62.5527 68.3809C62.8225 68.2587 63.0196 68.0805 63.1445 67.8477C63.2694 67.6148 63.332 67.3353 63.332 67.0088C63.332 66.6794 63.2683 66.3937 63.1406 66.1523C63.0156 65.9109 62.8177 65.7255 62.5479 65.5977C62.2808 65.4671 61.9296 65.4023 61.4951 65.4023H59.8418V68.5635Z" fill="#0F0F0F"/>
<path fill-rule="evenodd" clip-rule="evenodd" d="M75.2021 73H73.8047L73.0068 70.6904H69.5967L68.7969 73H67.3994L70.54 64.2725H72.0615L75.2021 73ZM69.9795 69.582H72.624L71.3369 65.8584H71.2686L69.9795 69.582Z" fill="#0F0F0F"/>
<path d="M82.6387 71.0566H82.7412L85.5195 64.2725H87.1182V73H85.8652V66.6846H85.7842L83.21 72.9873H82.1699L79.5967 66.6807H79.5156V73H78.2627V64.2725H79.8604L82.6387 71.0566Z" fill="#0F0F0F"/>
<path d="M96.3037 65.4062H92.1484V68.0654H96.0186V69.1943H92.1484V71.8662H96.3545V73H90.832V64.2725H96.3037V65.4062Z" fill="#0F0F0F"/>
<path d="M50.4489 40.8344C51.7182 40.8057 52.9881 40.7996 54.2577 40.8164C53.6248 42.2468 52.5078 44.1877 51.7385 45.6147C50.0398 48.7793 48.3171 51.9309 46.5702 55.0691C45.8581 54.5354 44.4667 53.7512 43.6678 53.2677L38.5285 50.1723C37.4798 49.551 36.1627 48.826 35.167 48.1603C32.8416 46.7414 30.508 45.3362 28.1664 43.9444C26.933 43.2053 25.0522 42.1743 24 41.2616C25.533 41.5084 27.5663 41.4127 29.1302 41.382C31.7656 41.3302 34.4283 41.1609 37.0623 41.0852L47.1885 40.8873C48.2925 40.8619 49.3422 40.8984 50.4489 40.8344Z" fill="#8A70BF"/>
<path d="M50.0341 0.469727C50.3326 0.525238 52.4187 1.84245 52.8192 2.08567L57.8271 5.10003L67.4108 10.8926C68.0714 11.2946 72.0625 13.5894 72.2048 14.0139C72.2277 14.0038 64.8458 14.2613 64.2815 14.2788C60.2371 14.3302 56.2141 14.4754 52.173 14.5676C48.938 14.6414 45.7492 14.5886 42.5098 14.8237C44.8515 10.1009 47.8007 5.16774 50.0341 0.469727Z" fill="#8A70BF"/>
<path d="M48.1087 0L48.2368 0.0989033C48.3468 0.905748 35.3913 23.7889 34.073 26.4973C33.1892 25.5006 31.5586 22.7129 30.8749 21.4969C29.1279 18.7479 27.5001 15.8756 25.7529 13.1481C27.0101 12.2566 28.3825 11.4982 29.7155 10.7244L34.9247 7.70414C39.3127 5.1651 43.7116 2.50057 48.1087 0Z" fill="#8A70BF"/>
<path d="M62.9842 29.3232C63.2517 29.5082 70.2114 41.352 70.9757 42.5563C69.3506 43.2696 65.5951 45.5793 63.8988 46.5906C60.3643 48.7014 56.8138 50.7853 53.2477 52.842C51.7915 53.8177 49.6729 54.9268 48.0693 55.933C48.5555 55.0994 48.9787 54.226 49.4496 53.3837C53.9244 45.3789 58.2408 37.1728 62.9842 29.3232Z" fill="#8A70BF"/>
<path d="M24.3619 14.4473C24.6841 14.5971 27.3284 19.0659 27.833 19.8878L34.7694 31.2618L38.1969 36.9062C38.448 37.3289 39.4926 38.7588 39.3131 39.1495L39.0131 39.1928C35.8644 39.3607 32.7126 39.4637 29.5597 39.5013C27.9667 39.524 25.7796 39.4857 24.2334 39.6183C24.4027 33.8806 24.2592 27.5267 24.2665 21.7441L24.2753 17.2357C24.2779 16.4465 24.2504 15.1997 24.3619 14.4473Z" fill="#0C0C0C"/>
<path d="M68.0365 15.9714C69.4283 15.9113 70.9665 15.9255 72.3696 15.9102C72.2918 16.5639 72.3198 17.7798 72.3201 18.4694L72.3224 22.8725C72.3235 24.6957 72.4481 40.7103 72.3089 41.0906C71.7481 40.7592 68.7546 35.5575 68.1786 34.5935C65.1947 29.9309 62.4293 24.8575 59.4591 20.1617C58.8777 19.2424 57.6243 16.9415 57.0254 16.3021C58.2886 16.2231 59.8183 16.2352 61.1054 16.2011L68.0365 15.9714Z" fill="#0C0C0C"/>
</svg>
