<svg width="18" height="18" viewBox="0 0 18 18" fill="none" xmlns="http://www.w3.org/2000/svg">
<path d="M9.75098 6.75H5.25098" stroke="#0F0F0F" stroke-width="1.5" stroke-linecap="round" stroke-linejoin="round"/>
<path d="M16.4992 8.22749V9.77254C16.4992 10.185 16.1692 10.5225 15.7492 10.5375H14.2792C13.4692 10.5375 12.7267 9.94501 12.6592 9.13501C12.6142 8.66251 12.7942 8.22001 13.1092 7.91251C13.3867 7.62751 13.7692 7.46252 14.1892 7.46252H15.7492C16.1692 7.47752 16.4992 7.81499 16.4992 8.22749Z" stroke="#0F0F0F" stroke-width="1.5" stroke-linecap="round" stroke-linejoin="round"/>
<path d="M13.109 7.91243C12.794 8.21993 12.614 8.66243 12.659 9.13493C12.7265 9.94493 13.469 10.5374 14.279 10.5374H15.749V11.6249C15.749 13.8749 14.249 15.3749 11.999 15.3749H5.24902C2.99902 15.3749 1.49902 13.8749 1.49902 11.6249V6.37494C1.49902 4.33494 2.72903 2.90994 4.64153 2.66994C4.83653 2.63994 5.03902 2.62494 5.24902 2.62494H11.999C12.194 2.62494 12.3815 2.63243 12.5615 2.66243C14.4965 2.88743 15.749 4.31994 15.749 6.37494V7.46245H14.189C13.769 7.46245 13.3865 7.62743 13.109 7.91243Z" stroke="#0F0F0F" stroke-width="1.5" stroke-linecap="round" stroke-linejoin="round"/>
</svg>
